Coordinates
version=1
nRows=14
nColumns=63
inDegrees=yes

Units are S.I. units (second, meters, Newtons, ...)
If the header above contains a line with 'inDegrees', this indicates whether rotational values are in degrees (yes) or radians (no).

endheader
time	pelvis_tilt	pelvis_list	pelvis_rotation	pelvis_tx	pelvis_ty	pelvis_tz	hip_flexion_r	hip_adduction_r	hip_rotation_r	knee_angle_r	knee_angle_r_beta	ankle_angle_r	subtalar_angle_r	mtp_angle_r	hip_flexion_l	hip_adduction_l	hip_rotation_l	knee_angle_l	knee_angle_l_beta	ankle_angle_l	subtalar_angle_l	mtp_angle_l	L5_S1_Flex_Ext	L5_S1_Lat_Bending	L5_S1_axial_rotation	L4_L5_Flex_Ext	L4_L5_Lat_Bending	L4_L5_axial_rotation	L3_L4_Flex_Ext	L3_L4_Lat_Bending	L3_L4_axial_rotation	L2_L3_Flex_Ext	L2_L3_Lat_Bending	L2_L3_axial_rotation	L1_L2_Flex_Ext	L1_L2_Lat_Bending	L1_L2_axial_rotation	L1_T12_Flex_Ext	L1_T12_Lat_Bending	L1_T12_axial_rotation	Abs_r3	Abs_r2	Abs_r1	Abs_t1	Abs_t2	neck_flexion	neck_bending	neck_rotation	arm_flex_r	arm_add_r	arm_rot_r	elbow_flex_r	pro_sup_r	wrist_flex_r	wrist_dev_r	arm_flex_l	arm_add_l	arm_rot_l	elbow_flex_l	pro_sup_l	wrist_flex_l	wrist_dev_l
4.185185	-2.178783	-4.844074	97.184250	0.001907	1.070400	0.433370	-5.798858	-1.068032	2.037625	0.299414	0.005226	19.650300	-3.366881	0.000000	-2.856531	-1.755240	22.134518	0.189304	0.003304	20.945942	-10.728325	0.000000	-0.160974	-0.180721	0.483270	-0.298944	-0.240358	0.513474	-0.264464	-0.439404	0.513474	-0.183977	-0.439404	0.422861	-0.149480	-0.368525	0.392656	-0.091980	-0.279936	0.362452	-1.149818	-2.044347	2.687800	0.000000	0.000000	13.313623	3.686038	-10.181310	429.842007	-125.103603	373.320505	65.120026	65.603499	20.387926	32.726799	359.553124	-104.551957	-78.455238	51.582039	87.998694	24.539048	14.777624
4.203704	-2.044640	-4.787904	97.372367	0.001467	1.070929	0.433402	-5.812236	-0.935709	1.966519	0.316567	0.005525	19.564029	-3.383657	0.000000	-2.811175	-1.869480	21.363564	0.189841	0.003313	21.391164	-9.986422	0.000000	-0.163549	-0.165669	0.538125	-0.303727	-0.220339	0.571758	-0.268694	-0.402807	0.571758	-0.186920	-0.402807	0.470859	-0.151872	-0.337831	0.437227	-0.093452	-0.256621	0.403594	-1.168213	-1.874076	2.992890	0.000000	0.000000	13.691106	3.547915	-10.612134	429.780695	-125.575235	380.420974	65.971276	63.091091	19.531949	33.803101	353.758527	-104.857929	-76.329151	48.245015	87.262429	25.040455	15.047626
4.222222	-1.892286	-4.691304	97.558733	0.001086	1.071622	0.433542	-5.832350	-0.782066	2.014961	0.360028	0.006284	19.473065	-3.543453	0.000000	-2.795682	-2.006288	20.519617	0.191880	0.003349	21.821932	-9.156015	0.000000	-0.168398	-0.148623	0.576696	-0.312733	-0.197668	0.612739	-0.276662	-0.361361	0.612739	-0.192462	-0.361361	0.504609	-0.156375	-0.303071	0.468565	-0.096223	-0.230217	0.432522	-1.202853	-1.681249	3.207408	0.000000	0.000000	14.044967	3.365243	-10.956225	429.996166	-125.549458	388.182021	66.758700	60.497828	18.829644	34.104542	346.839462	-105.236812	-72.027366	44.284524	86.437778	24.128931	14.757938
4.240741	-1.705585	-4.567245	97.723722	0.000756	1.072422	0.433829	-5.824228	-0.604301	1.976721	0.469903	0.008201	19.392376	-3.587181	0.000000	-2.797747	-2.178556	19.710406	0.196677	0.003433	22.208360	-8.372192	0.000000	-0.173817	-0.126162	0.588765	-0.322795	-0.167795	0.625563	-0.285563	-0.306750	0.625563	-0.198655	-0.306750	0.515170	-0.161406	-0.257269	0.478372	-0.099319	-0.195424	0.441574	-1.241555	-1.427166	3.274537	0.000000	0.000000	14.374894	3.109350	-11.082669	430.865435	-124.859793	396.589342	67.300795	58.510490	18.454282	33.633989	339.351264	-105.699822	-65.544363	39.873325	86.051073	21.670425	13.681888
4.259259	-1.497058	-4.424226	97.824123	0.000564	1.073279	0.434284	-5.774008	-0.419306	1.815211	0.657937	0.011483	19.355912	-3.375651	0.000000	-2.816815	-2.373070	18.886951	0.204883	0.003576	22.540959	-7.587106	0.000000	-0.179708	-0.099975	0.587044	-0.333736	-0.132967	0.623734	-0.295243	-0.243080	0.623734	-0.205389	-0.243080	0.513664	-0.166877	-0.203870	0.476973	-0.102685	-0.154862	0.440283	-1.283638	-1.130941	3.264963	0.000000	0.000000	14.691216	2.753958	-11.026700	433.097012	-123.636613	406.220550	67.494608	57.225328	18.291494	32.410720	330.875380	-106.220219	-57.873298	35.097349	85.889354	18.088136	11.829816
4.277778	-1.272519	-4.278781	97.834579	0.000539	1.074124	0.434898	-5.666169	-0.234693	1.537042	0.925847	0.016159	19.375356	-2.880642	0.000000	-2.840999	-2.581836	18.060335	0.219441	0.003830	22.815739	-6.826258	0.000000	-0.185196	-0.071006	0.569602	-0.343928	-0.094437	0.605203	-0.304259	-0.172643	0.605203	-0.211661	-0.172643	0.498402	-0.171973	-0.144795	0.462802	-0.105821	-0.109988	0.427202	-1.322837	-0.803229	3.167958	0.000000	0.000000	15.008256	2.320371	-10.767125	437.033556	-122.006609	417.157555	67.250099	57.018309	18.314572	30.461271	321.599079	-106.835298	-49.605982	30.101899	85.269069	13.924836	9.417012
4.296296	-1.026587	-4.145933	97.720021	0.000698	1.074899	0.435671	-5.486005	-0.048036	1.195290	1.271306	0.022188	19.451354	-2.126021	0.000000	-2.859532	-2.807627	17.200949	0.243806	0.004255	23.041880	-6.078457	0.000000	-0.189771	-0.038292	0.542291	-0.352424	-0.050928	0.576184	-0.311775	-0.093102	0.576184	-0.216889	-0.093102	0.474505	-0.176221	-0.078084	0.440611	-0.108435	-0.059314	0.406718	-1.355516	-0.433163	3.016060	0.000000	0.000000	15.334240	1.812365	-10.317403	442.816883	-120.172940	429.405233	66.468684	57.871989	18.532525	28.016931	311.501604	-107.580352	-41.658311	25.069455	83.469317	9.653206	6.802637
4.314815	-0.744460	-4.039782	97.477867	0.001013	1.075535	0.436599	-5.223413	0.156107	0.796674	1.687938	0.029460	19.606052	-1.094332	0.000000	-2.859037	-3.063834	16.305522	0.281161	0.004907	23.243201	-5.356768	0.000000	-0.193707	0.000585	0.506111	-0.359734	0.000778	0.537743	-0.318242	0.001423	0.537743	-0.221388	0.001423	0.442847	-0.179877	0.001193	0.411215	-0.110684	0.000906	0.379583	-1.383632	0.006619	2.814839	0.000000	0.000000	15.700727	1.251465	-9.662109	450.372656	-118.347665	442.811797	65.094876	59.745049	18.813876	25.307506	300.828893	-108.533696	-34.466094	20.184743	80.298982	5.310161	4.009152
4.333333	-0.419489	-3.974924	97.096726	0.001475	1.075942	0.437665	-4.869641	0.384386	0.383862	2.166821	0.037818	19.864530	0.172888	0.000000	-2.829400	-3.356559	15.377485	0.331353	0.005783	23.438265	-4.688410	0.000000	-0.197458	0.046086	0.463698	-0.366700	0.061294	0.492679	-0.324404	0.112053	0.492679	-0.225675	0.112053	0.405735	-0.183360	0.093978	0.376754	-0.112828	0.071387	0.347773	-1.410425	0.521330	2.578947	0.000000	0.000000	16.150777	0.668727	-8.841087	459.492132	-116.682326	457.085113	63.054855	62.634112	19.216073	22.415589	289.892888	-109.782747	-28.374896	15.634208	75.898487	0.980570	1.063453
4.351852	-0.041288	-3.968557	96.562888	0.002056	1.076021	0.438856	-4.415077	0.650760	0.015610	2.694115	0.047021	20.250921	1.625151	0.000000	-2.759823	-3.695814	14.435870	0.390034	0.006807	23.661631	-4.107702	0.000000	-0.199987	0.099793	0.420570	-0.371397	0.132724	0.446856	-0.328559	0.242636	0.446856	-0.228566	0.242636	0.367999	-0.185708	0.203497	0.341713	-0.114273	0.154579	0.315428	-1.428491	1.128873	2.339086	0.000000	0.000000	16.702642	0.099382	-7.861392	469.905605	-115.349367	471.974451	60.422276	66.435300	19.397438	19.415247	279.109643	-111.370096	-23.522764	11.604892	70.512702	-3.354565	-2.047485
4.370370	0.386469	-4.033749	95.886722	0.002726	1.075694	0.440145	-3.857532	0.952822	-0.289543	3.252555	0.056768	20.783437	3.232932	0.000000	-2.639758	-4.079179	13.528703	0.451308	0.007877	23.940046	-3.637122	0.000000	-0.200018	0.160919	0.377962	-0.371454	0.214023	0.401584	-0.328610	0.391259	0.401584	-0.228601	0.391259	0.330717	-0.185737	0.328146	0.307094	-0.114291	0.249264	0.283471	-1.428712	1.820350	2.102110	0.000000	0.000000	17.352385	-0.419469	-6.763799	481.277180	-114.469372	487.130622	57.233775	70.898231	19.309169	16.380300	268.858010	-113.299742	-19.956970	8.264602	64.358718	-7.580570	-5.219565
4.388889	0.841075	-4.182940	95.052692	0.003500	1.074907	0.441516	-3.190222	1.272947	-0.505113	3.838904	0.067002	21.480264	4.972390	0.000000	-2.462740	-4.485851	12.660478	0.509576	0.008894	24.287603	-3.294766	0.000000	-0.196062	0.226404	0.354854	-0.364107	0.301117	0.377033	-0.322110	0.550478	0.377033	-0.224079	0.550478	0.310497	-0.182063	0.461683	0.288319	-0.112030	0.350699	0.266141	-1.400451	2.561125	1.973593	0.000000	0.000000	18.097982	-0.865876	-5.642206	493.238322	-114.268523	502.265781	53.607402	75.394848	18.632958	13.451764	258.905634	-115.533414	-18.387432	5.690486	57.635005	-11.296069	-8.125551
4.407407	1.303947	-4.425881	94.067045	0.004356	1.073630	0.442952	-2.406250	1.599512	-0.636001	4.460175	0.077845	22.337683	6.811320	0.000000	-2.218123	-4.899333	11.829777	0.563090	0.009828	24.729502	-3.077218	0.000000	-0.186497	0.293830	0.360712	-0.346343	0.390793	0.383256	-0.306396	0.714417	0.383256	-0.213147	0.714417	0.315623	-0.173181	0.599177	0.293078	-0.106564	0.455142	0.270534	-1.332128	3.323860	2.006169	0.000000	0.000000	18.946764	-1.244664	-4.554077	505.321277	-114.951394	517.174774	49.797290	78.736727	16.413488	10.770151	248.917572	-118.080464	-19.345019	3.912974	50.439141	-14.063260	-10.134336
4.425926	1.754842	-4.766163	92.967307	0.005245	1.071871	0.444401	-1.523544	1.919369	-0.698959	5.092147	0.088875	23.349880	8.703315	0.000000	-1.902116	-5.304117	11.035514	0.607417	0.010601	25.284449	-2.945049	0.000000	-0.170100	0.360982	0.382912	-0.315894	0.480106	0.406844	-0.279458	0.877691	0.406844	-0.194408	0.877691	0.335048	-0.157955	0.736114	0.311116	-0.097195	0.559161	0.287184	-1.215011	4.083499	2.129640	0.000000	0.000000	19.906502	-1.509508	-3.423935	517.128317	-116.525332	531.669981	46.056712	80.114215	11.937537	8.359135	238.923007	-120.989493	-23.437034	2.910514	43.244600	-15.665898	-10.979907
